<svg width="720" height="520" viewBox="0 0 720 520" fill="none" xmlns="http://www.w3.org/2000/svg">
  <rect width="720" height="520" rx="36" fill="#F8F2EA"/>
  <circle cx="582" cy="106" r="74" fill="#E8D8C5"/>
  <circle cx="120" cy="426" r="88" fill="#DCE7FF"/>
  <rect x="78" y="92" width="564" height="336" rx="28" fill="#FFFDF8" stroke="#1A1A1A" stroke-opacity="0.08"/>
  <rect x="118" y="130" width="224" height="260" rx="28" fill="#1A1A1A"/>
  <rect x="134" y="152" width="192" height="216" rx="20" fill="#F4E0CC"/>
  <rect x="184" y="166" width="92" height="12" rx="6" fill="#1A1A1A" fill-opacity="0.16"/>
  <rect x="154" y="206" width="152" height="80" rx="18" fill="#FFF9F1"/>
  <rect x="170" y="222" width="54" height="12" rx="6" fill="#1E3A8A"/>
  <rect x="170" y="244" width="106" height="10" rx="5" fill="#1A1A1A" fill-opacity="0.18"/>
  <rect x="170" y="262" width="88" height="10" rx="5" fill="#1A1A1A" fill-opacity="0.12"/>
  <rect x="154" y="304" width="152" height="44" rx="14" fill="#1A1A1A"/>
  <rect x="196" y="321" width="68" height="10" rx="5" fill="#FFFDF8"/>
  <rect x="390" y="140" width="210" height="118" rx="24" fill="#FFF4E8"/>
  <rect x="412" y="166" width="74" height="14" rx="7" fill="#C9722C"/>
  <rect x="412" y="192" width="126" height="10" rx="5" fill="#1A1A1A" fill-opacity="0.16"/>
  <rect x="412" y="210" width="108" height="10" rx="5" fill="#1A1A1A" fill-opacity="0.1"/>
  <path d="M559 205C559 190.641 570.641 179 585 179V179C599.359 179 611 190.641 611 205V235H559V205Z" fill="#1E3A8A"/>
  <circle cx="585" cy="205" r="18" fill="#DCE7FF"/>
  <rect x="390" y="280" width="210" height="110" rx="24" fill="#EEF3FF"/>
  <rect x="412" y="302" width="96" height="14" rx="7" fill="#1E3A8A"/>
  <rect x="412" y="330" width="146" height="10" rx="5" fill="#1A1A1A" fill-opacity="0.16"/>
  <rect x="412" y="348" width="118" height="10" rx="5" fill="#1A1A1A" fill-opacity="0.1"/>
  <rect x="544" y="304" width="34" height="34" rx="10" fill="#FFFDF8"/>
  <path d="M551 321H571" stroke="#C9722C" stroke-width="4" stroke-linecap="round"/>
  <path d="M561 311V331" stroke="#C9722C" stroke-width="4" stroke-linecap="round"/>
</svg>
